<?xml version="1.0" encoding="UTF-8" standalone="no"?>
<svg
   width="786"
   height="786"
   viewBox="0 0 786 786"
   fill="none"
   version="1.1"
   id="svg453"
   sodipodi:docname="eudox-logo-white.svg"
   inkscape:version="1.2.2 (b0a8486, 2022-12-01)"
   xmlns:inkscape="http://www.inkscape.org/namespaces/inkscape"
   xmlns:sodipodi="http://sodipodi.sourceforge.net/DTD/sodipodi-0.dtd"
   xmlns="http://www.w3.org/2000/svg"
   xmlns:svg="http://www.w3.org/2000/svg">
  <sodipodi:namedview
     id="namedview455"
     pagecolor="#ffffff"
     bordercolor="#000000"
     borderopacity="0.25"
     inkscape:showpageshadow="2"
     inkscape:pageopacity="0.0"
     inkscape:pagecheckerboard="0"
     inkscape:deskcolor="#d1d1d1"
     showgrid="false"
     inkscape:zoom="0.30025445"
     inkscape:cx="-81.597458"
     inkscape:cy="393"
     inkscape:window-width="1309"
     inkscape:window-height="456"
     inkscape:window-x="52"
     inkscape:window-y="38"
     inkscape:window-maximized="0"
     inkscape:current-layer="svg453" />
  <g
     clip-path="url(#clip0_174_114)"
     id="g436"
     style="fill:#ffffff;fill-opacity:1">
    <rect
       x="260.674"
       y="529"
       width="125.417"
       height="370.579"
       transform="rotate(46.0226 260.674 529)"
       fill="#44EFFF"
       id="rect428"
       style="fill:#ffffff;fill-opacity:1" />
    <rect
       x="692.7"
       y="-120.423"
       width="149.448"
       height="370.579"
       transform="rotate(43.0687 692.7 -120.423)"
       fill="#44EFFF"
       id="rect430"
       style="fill:#ffffff;fill-opacity:1" />
    <path
       d="M387.001 50C558.603 49.7716 704.835 172.646 731.679 339.623C757.975 503.196 662.033 661.395 504.617 716.682V488.766C524.791 463.84 535.911 432.298 535.911 397.399C535.911 296.657 449.797 256.885 387.001 251.946V50Z"
       fill="url(#paint0_linear_174_114)"
       id="path432"
       style="fill:#ffffff;fill-opacity:1" />
    <path
       d="M292.808 285.319C266.929 313.957 251.501 352.749 251.501 391.5C260.354 465.866 303.6 532.802 389.093 539.052V735.203C187.073 727.045 72.8812 602.352 50.5 427.5C38.5247 263.008 136.602 116.427 290.681 66.9558L292.808 285.319Z"
       fill="url(#paint1_linear_174_114)"
       id="path434"
       style="fill:#ffffff;fill-opacity:1" />
  </g>
  <defs
     id="defs451">
    <linearGradient
       id="paint0_linear_174_114"
       x1="562.457"
       y1="659.045"
       x2="562.457"
       y2="294.348"
       gradientUnits="userSpaceOnUse">
      <stop
         offset="0.18"
         stop-color="#A7FED9"
         id="stop438" />
      <stop
         offset="1"
         stop-color="#44EFFF"
         id="stop440" />
    </linearGradient>
    <linearGradient
       id="paint1_linear_174_114"
       x1="242.98"
       y1="107.721"
       x2="211.528"
       y2="477.324"
       gradientUnits="userSpaceOnUse">
      <stop
         offset="0.18"
         stop-color="#A7FED9"
         id="stop443" />
      <stop
         offset="1"
         stop-color="#44EFFF"
         id="stop445" />
    </linearGradient>
    <clipPath
       id="clip0_174_114">
      <rect
         width="786"
         height="786"
         rx="50"
         fill="white"
         id="rect448" />
    </clipPath>
  </defs>
</svg>
