<svg width="800" height="800" viewBox="0 0 800 800" fill="none" xmlns="http://www.w3.org/2000/svg">
  <!-- Left segment (light cyan/mint for dark mode) -->
  <path d="M290 100 C 150 150, 50 250, 50 400 C 50 550, 150 650, 290 700 L 290 540 C 230 520, 190 465, 190 400 C 190 335, 230 280, 290 260 Z" fill="url(#gradient1)"/>
  
  <!-- Right segment (bright cyan for dark mode) -->
  <path d="M510 100 C 650 150, 750 250, 750 400 C 750 550, 650 650, 510 700 L 510 540 C 570 520, 610 465, 610 400 C 610 335, 570 280, 510 260 Z" fill="url(#gradient2)"/>
  
  <!-- Top arrow -->
  <path d="M 475 50 L 640 185 L 510 185 L 510 260 L 390 260 L 390 185 L 260 185 Z" fill="url(#gradient3)"/>
  
  <!-- Bottom arrow -->
  <path d="M 325 750 L 160 615 L 290 615 L 290 540 L 410 540 L 410 615 L 540 615 Z" fill="url(#gradient4)"/>
  
  <defs>
    <!-- Gradients for dark mode - lighter, more vibrant colors -->
    <linearGradient id="gradient1" x1="0%" y1="0%" x2="100%" y2="100%">
      <stop offset="0%" style="stop-color:#A0F0E5;stop-opacity:1" />
      <stop offset="100%" style="stop-color:#6EE7DC;stop-opacity:1" />
    </linearGradient>
    <linearGradient id="gradient2" x1="0%" y1="0%" x2="100%" y2="100%">
      <stop offset="0%" style="stop-color:#4EE8DC;stop-opacity:1" />
      <stop offset="100%" style="stop-color:#2DD4C7;stop-opacity:1" />
    </linearGradient>
    <linearGradient id="gradient3" x1="0%" y1="0%" x2="100%" y2="100%">
      <stop offset="0%" style="stop-color:#5FF0E8;stop-opacity:1" />
      <stop offset="100%" style="stop-color:#4EE8DC;stop-opacity:1" />
    </linearGradient>
    <linearGradient id="gradient4" x1="0%" y1="100%" x2="100%" y2="0%">
      <stop offset="0%" style="stop-color:#A0F0E5;stop-opacity:1" />
      <stop offset="100%" style="stop-color:#6EE7DC;stop-opacity:1" />
    </linearGradient>
  </defs>
</svg>
